<svg width="200" height="33" viewBox="0 0 200 33" fill="none" xmlns="http://www.w3.org/2000/svg">
<path d="M7.34998 6.00002L2.78448 6.01588C1.24128 6.02125 -0.00536942 7.27114 1.73919e-05 8.80759L0.0159541 13.3531C0.0213409 14.8896 1.27672 16.1308 2.81992 16.1254L7.38542 16.1095C8.92863 16.1042 10.1753 14.8543 10.1699 13.3178L10.1539 8.7723C10.1486 7.23585 8.89318 5.99465 7.34998 6.00002Z" fill="#1A1A18"/>
<path d="M19.3692 6.01459L14.7606 6.00658C13.2337 6.00393 11.9938 7.23412 11.9911 8.7543L11.9831 13.3481C11.9804 14.8683 13.216 16.1028 14.7429 16.1054L19.3514 16.1134C20.8783 16.1161 22.1182 14.8859 22.1209 13.3657L22.1289 8.77192C22.1316 7.25174 20.896 6.01724 19.3692 6.01459Z" fill="#1A1A18"/>
<path d="M66.3831 22.842L76.4751 6.3215C76.4824 6.30945 76.4927 6.29944 76.5049 6.29241C76.5172 6.28538 76.531 6.28155 76.5451 6.2813H81.1914C81.2063 6.28109 81.221 6.28484 81.2339 6.29217C81.2468 6.2995 81.2576 6.31014 81.265 6.32299C81.2724 6.33584 81.2762 6.35043 81.2761 6.36525C81.2759 6.38007 81.2718 6.39458 81.2641 6.40727L68.8327 26.9427C68.8254 26.9547 68.8152 26.9647 68.8029 26.9718C68.7907 26.9788 68.7769 26.9826 68.7627 26.9829L63.8796 26.9936C63.865 26.9938 63.8506 26.9902 63.8378 26.9832C63.8251 26.9761 63.8144 26.9658 63.8069 26.9534L51.3701 6.40995C51.3624 6.39726 51.3583 6.38275 51.3581 6.36793C51.358 6.35311 51.3618 6.33852 51.3692 6.32567C51.3766 6.31282 51.3874 6.30218 51.4003 6.29485C51.4132 6.28752 51.4279 6.28377 51.4428 6.28398L56.0783 6.27594C56.0924 6.2762 56.1063 6.28001 56.1185 6.28704C56.1308 6.29408 56.141 6.30409 56.1483 6.31615L66.2431 22.842C66.2507 22.8536 66.261 22.8632 66.2732 22.8698C66.2855 22.8764 66.2992 22.8799 66.3131 22.8799C66.327 22.8799 66.3407 22.8764 66.3529 22.8698C66.3651 22.8632 66.3755 22.8536 66.3831 22.842ZM33.8914 26.9856H29.2289C29.2143 26.9859 29.1999 26.9822 29.1873 26.975C29.1746 26.9679 29.1641 26.9574 29.1569 26.9447C29.1497 26.9321 29.1461 26.9177 29.1465 26.9032C29.1468 26.8887 29.1511 26.8746 29.1589 26.8623L41.6118 6.31883C41.6193 6.3071 41.6296 6.29747 41.6419 6.2909C41.6541 6.28432 41.6679 6.28102 41.6818 6.2813H46.5219C46.5361 6.28129 46.5501 6.285 46.5623 6.29206C46.5746 6.29911 46.5848 6.30927 46.5919 6.3215L59.0448 26.881C59.0525 26.8931 59.0568 26.907 59.0572 26.9213C59.0577 26.9356 59.0543 26.9498 59.0475 26.9623C59.0406 26.9749 59.0305 26.9854 59.0182 26.9928C59.0059 27.0002 58.9919 27.0041 58.9775 27.0043L54.3178 26.9909C54.3039 26.9912 54.2901 26.9879 54.2778 26.9813C54.2656 26.9747 54.2552 26.9651 54.2478 26.9534L44.1773 10.4436C44.1702 10.4313 44.16 10.4212 44.1477 10.4141C44.1354 10.407 44.1215 10.4033 44.1073 10.4033C44.0931 10.4033 44.0791 10.407 44.0668 10.4141C44.0545 10.4212 44.0443 10.4313 44.0373 10.4436L33.9613 26.948C33.9539 26.9598 33.9436 26.9694 33.9313 26.976C33.919 26.9825 33.9053 26.9858 33.8914 26.9856ZM98.7052 22.842L108.792 6.3215C108.799 6.30945 108.809 6.29944 108.822 6.29241C108.834 6.28538 108.848 6.28155 108.862 6.2813H113.514C113.528 6.28109 113.543 6.28484 113.556 6.29217C113.569 6.2995 113.58 6.31014 113.587 6.32299C113.595 6.33584 113.598 6.35043 113.598 6.36525C113.598 6.38007 113.594 6.39458 113.586 6.40727L101.147 26.9427C101.139 26.9547 101.129 26.9647 101.117 26.9718C101.105 26.9788 101.091 26.9826 101.077 26.9829L96.1963 26.9882C96.1817 26.9884 96.1673 26.9848 96.1545 26.9778C96.1418 26.9707 96.1311 26.9605 96.1236 26.948L83.6815 6.40727C83.6738 6.39458 83.6696 6.38007 83.6695 6.36525C83.6693 6.35043 83.6732 6.33584 83.6806 6.32299C83.688 6.31014 83.6987 6.2995 83.7117 6.29217C83.7246 6.28484 83.7393 6.28109 83.7541 6.2813H88.4031C88.4172 6.28155 88.4311 6.28538 88.4433 6.29241C88.4556 6.29944 88.4658 6.30945 88.4731 6.3215L98.5652 22.842C98.5728 22.8536 98.5831 22.8632 98.5954 22.8698C98.6076 22.8764 98.6213 22.8799 98.6352 22.8799C98.6491 22.8799 98.6628 22.8764 98.675 22.8698C98.6872 22.8632 98.6976 22.8536 98.7052 22.842ZM120.741 10.4195C117.49 15.8423 114.198 21.2589 110.867 26.6693C110.604 27.1008 110.423 26.9909 109.987 26.9856C108.639 26.9659 107.29 26.9811 105.938 27.0311C105.925 27.031 105.912 27.0275 105.901 27.0208C105.89 27.0142 105.88 27.0047 105.874 26.9933C105.867 26.9819 105.864 26.969 105.864 26.9559C105.864 26.9428 105.867 26.9299 105.874 26.9186L118.302 6.39387C118.323 6.35954 118.352 6.33111 118.388 6.31138C118.423 6.29164 118.463 6.28128 118.504 6.2813H123.194C123.235 6.28139 123.275 6.29204 123.311 6.31223C123.347 6.33241 123.377 6.36145 123.398 6.39655L133.84 23.6648C133.888 23.7456 133.913 23.8372 133.913 23.9302L133.905 26.8355C133.905 26.8753 133.889 26.9134 133.86 26.9416C133.831 26.9697 133.792 26.9856 133.752 26.9856H131.14C131.098 26.9856 131.057 26.9747 131.02 26.9541C130.983 26.9334 130.952 26.9037 130.93 26.8676L120.906 10.4168C120.897 10.4031 120.884 10.3919 120.87 10.3842C120.855 10.3765 120.839 10.3726 120.823 10.3729C120.806 10.3732 120.79 10.3776 120.776 10.3857C120.762 10.3939 120.75 10.4055 120.741 10.4195Z" fill="#1A1A18"/>
<path d="M7.40618 17.9012L2.78143 17.8931C1.25607 17.8905 0.0173514 19.1195 0.0146891 20.6382L0.00662683 25.2373C0.00396456 26.756 1.23836 27.9893 2.76373 27.992L7.38848 28C8.91384 28.0026 10.1526 26.7736 10.1552 25.255L10.1633 20.6558C10.1659 19.1371 8.93155 17.9038 7.40618 17.9012Z" fill="#1A1A18"/>
<path d="M19.3783 17.8958L14.7159 17.9039C13.2084 17.9065 11.9884 19.1254 11.991 20.6263L11.9992 25.2844C12.0018 26.7853 13.2261 28 14.7336 27.9973L19.396 27.9892C20.9036 27.9866 22.1235 26.7678 22.1209 25.2668L22.1127 20.6087C22.1101 19.1078 20.8859 17.8931 19.3783 17.8958Z" fill="#1A1A18"/>
</svg>
