<svg width="28" height="18" viewBox="0 0 28 18" fill="none" xmlns="http://www.w3.org/2000/svg">
<path fill-rule="evenodd" clip-rule="evenodd" d="M25.4804 0.458628C25.0318 0.667966 24.6729 0.458628 24.1047 1.59504C22.3702 5.18369 21.0245 8.08452 19.4096 12.2414C19.4694 8.80225 20.0675 6.08085 20.4264 2.73144C20.4862 2.10343 20.5759 1.26608 20.5759 0.638061C20.5759 0.159573 20.0675 0.0698569 19.0806 0.57825C18.5423 0.847399 17.8844 0.817493 17.6153 1.47541C16.5387 4.25662 14.0565 11.9722 12.9201 16.3384C12.6509 17.3851 13.6677 17.5646 13.9967 16.488C14.7443 13.8862 16.4788 8.11443 17.5255 5.15379C17.4358 7.87518 16.6882 12.1517 17.0171 14.4245C17.1368 15.1422 17.7947 15.4413 18.1236 16.0394C18.3629 16.458 18.7517 16.5179 18.961 15.9198C19.9778 13.1684 21.9216 8.32376 23.8057 4.46596C23.4468 6.17057 22.0114 13.4077 21.6226 16.3085C21.5329 16.8767 22.2506 16.9066 22.8786 17.7739C23.0281 17.9832 23.5664 18.1926 23.6562 17.6842C23.9851 15.9497 26.1981 4.7052 27.0355 1.14645C27.3046 0.129668 27.2448 -0.34882 25.4804 0.458628ZM11.0959 8.62282C11.8435 7.48641 12.0827 7.72565 12.2622 7.36679C12.5014 6.94811 12.3519 6.52944 11.5145 6.61915C11.5145 6.61915 11.2155 6.64906 10.6473 6.70887C11.5444 4.40615 12.322 2.43239 12.8902 0.967021C13.0995 0.458628 13.1294 0.0997624 12.8005 0.010046C12.4715 -0.0796704 11.5145 0.458628 10.9164 0.548344C10.737 0.608155 10.5277 0.787588 10.4678 0.937115C9.57068 2.97069 8.73333 5.03416 7.92588 7.12754C6.96891 7.27707 5.86241 7.48641 4.63628 7.78547C5.53345 5.51265 6.43061 3.26974 7.29787 1.11655C7.71655 0.0698569 6.61004 -0.0497649 6.16146 1.02683C5.20449 3.35946 4.24751 5.72199 3.35035 8.08452C2.48309 8.29386 1.55602 8.5331 0.599046 8.83216C-0.0887792 9.04149 -0.118685 9.22093 0.18037 9.6396C0.359803 9.87885 0.688763 9.84894 0.83829 10.0284C1.25697 10.4471 1.49621 10.9853 2.21394 11.0452C1.55602 12.7797 0.928006 14.5441 0.329897 16.3085C-0.0289682 17.3851 1.01772 17.6244 1.4364 16.458C2.09432 14.6039 2.78215 12.7199 3.49988 10.8657C4.09799 10.7162 5.50354 10.4171 6.84929 10.148C5.8026 13.0189 5.11477 15.202 4.84562 16.2487C4.78581 16.458 4.87553 16.5777 4.93534 16.6375C5.2942 17.1459 5.62316 17.1758 6.07175 17.8038C6.19137 17.9832 6.43061 18.0131 6.61004 17.8636C6.66985 17.8038 6.72967 17.7141 6.75957 17.6543C7.65673 14.9329 8.64361 12.2115 9.6604 9.51998C9.98936 9.43027 10.6772 9.25083 11.0959 8.62282Z" fill="#CD2026"/>
<path fill-rule="evenodd" clip-rule="evenodd" d="M11.8136 13.0787C11.7538 13.1385 11.6641 13.1984 11.6043 13.2881C11.5145 13.0488 11.4547 12.7797 11.365 12.5404C11.6043 12.2713 11.8136 11.9722 11.993 11.7031C12.7706 10.477 11.2454 9.78914 10.5576 10.5667C10.1987 10.9854 10.2884 11.404 10.3781 11.7629L10.4978 12.2115C10.3183 12.3909 10.0791 12.6601 9.78002 12.989C9.03239 13.8563 9.24172 14.9927 10.0492 15.2618C10.5277 15.4114 11.0061 15.202 11.3949 14.8432C11.4248 14.903 11.4248 14.9628 11.4547 14.9927C11.6641 15.531 12.322 15.3516 12.0528 14.7235C12.0229 14.6039 11.9631 14.4544 11.9033 14.275C12.0229 14.1254 12.1426 13.9759 12.2622 13.7965C12.7706 13.0787 12.322 12.6601 11.8136 13.0787ZM11.3052 11.404C11.2454 11.4937 11.1557 11.5536 11.0959 11.6433C11.066 11.5835 11.066 11.5237 11.0361 11.4638C10.8267 10.6265 11.8136 10.8657 11.3052 11.404ZM10.7968 14.0058C10.4978 14.1852 10.2585 14.0058 10.6772 13.4376C10.737 13.3479 10.8267 13.2582 10.8865 13.1685C10.9463 13.3778 11.0061 13.5871 11.0959 13.7965C10.9762 13.8563 10.8865 13.946 10.7968 14.0058Z" fill="#CD2026"/>
</svg>
