<svg width="98" height="34" viewBox="0 0 98 34" fill="none" xmlns="http://www.w3.org/2000/svg">
<path fill-rule="evenodd" clip-rule="evenodd" d="M0 33.2492H9.07136V20.1638C9.07136 17.6492 9.85027 15.8331 12.141 15.8331C14.8899 15.8331 15.119 17.882 15.119 20.1638V33.2492H24.1904V20.1638C24.1904 17.6492 24.9693 15.8331 27.26 15.8331C30.0087 15.8331 30.238 17.882 30.238 20.1638V33.2492H39.3093V16.6713C39.3093 12.7595 37.2476 8.47534 31.1542 8.47534C25.2441 8.47534 23.4114 11.9678 23.0449 12.2474C21.9453 9.8258 19.1965 8.47534 16.6309 8.47534C13.3321 8.47534 10.675 9.49991 8.8423 12.2939H8.75075V9.08078H0V33.2492Z" fill="#03467B"/>
<path fill-rule="evenodd" clip-rule="evenodd" d="M55.6499 24.6343C55.5123 27.1489 53.9087 28.4063 51.847 28.4063C50.1979 28.4063 49.0066 27.2887 49.0066 26.171C49.0066 24.5412 50.0603 24.0291 52.0763 23.5632C53.3133 23.2838 54.5503 22.9578 55.6499 22.399V24.6343ZM64.3546 17.9285C64.3546 13.2717 64.4462 8.47534 53.0843 8.47534C47.449 8.47534 41.1265 9.59297 40.8517 16.3918H49.2816C49.3274 15.3674 49.8773 13.9237 52.6719 13.9237C54.1378 13.9237 55.6499 14.5291 55.6499 16.1589C55.6499 17.6957 54.4128 18.0683 53.1758 18.3009C48.5485 19.1859 39.752 18.9064 39.752 26.5435C39.752 31.6194 43.5546 33.8547 48.1361 33.8547C51.0683 33.8547 53.863 33.2027 55.7872 30.9674H55.8789C55.8331 31.6194 55.9705 32.5972 56.1995 33.2492H65.4542C64.4462 31.7127 64.3546 29.6635 64.3546 27.8474V17.9285Z" fill="#03467B"/>
<path fill-rule="evenodd" clip-rule="evenodd" d="M89.6201 9.08081H80.3655L76.6086 23.7961H76.5171L72.806 9.08081H63.2307L71.0193 33.2492H81.7398L89.6201 9.08081Z" fill="#03467B"/>
<path fill-rule="evenodd" clip-rule="evenodd" d="M88.8164 33.2492H97.8878V9.08078H88.8164V33.2492ZM88.8164 6.47292H97.8878V0H88.8164V6.47292Z" fill="#03467B"/>
</svg>
