<svg width="924" height="144" viewBox="0 0 924 144" fill="none" xmlns="http://www.w3.org/2000/svg">
<path d="M301.192 106.262C297.069 107.062 292.594 106.537 289.01 104.267C284.826 101.748 282.036 97.2353 281.505 92.4208C281.438 91.4401 281.435 90.4562 281.495 89.4752C282.106 83.9394 286.292 78.8715 291.817 77.5981C298.606 85.0008 305.394 92.3952 312.221 99.7592C309.434 103.099 305.466 105.413 301.192 106.262ZM331.843 96.8774C332.076 93.84 332.294 90.7663 333.282 87.8517C334.442 84.1824 336.491 80.3856 340.145 78.6722C340.892 78.4498 341.666 78.2888 342.444 78.2196C342.452 77.5215 342.408 76.8135 342.586 76.1282C342.374 75.1694 342.671 74.1925 342.568 73.2209C342.426 71.7633 342.444 70.2984 342.485 68.8359C342.594 67.0126 342.336 65.149 342.586 63.3409C342.477 62.8829 342.444 62.4204 342.434 61.9575C337.897 61.9143 333.369 63.1671 329.464 65.4401C323.578 68.8668 319.125 74.7089 317.57 81.3267C308.792 71.9352 300.181 62.3919 291.426 52.9852C289.564 50.9061 288.739 48.0273 289.098 45.2859C289.652 42.3227 291.537 39.5891 294.292 38.2371C296.131 37.2346 298.297 37.081 300.343 37.3368C303.497 37.8508 306.225 40.0752 307.518 42.9545C312.391 40.4458 317.369 38.1272 322.222 35.5625C321.381 33.9999 320.504 32.4451 319.401 31.0489C314.554 24.6977 306.606 20.7344 298.549 20.9269C289.231 20.7698 280.164 26.2039 275.777 34.3219C272.997 39.3211 271.966 45.2535 272.923 50.8811C273.765 56.1277 276.305 61.088 280.079 64.8495C275.709 67.4166 271.966 71.0476 269.347 75.3687C266.335 80.2908 264.838 86.0872 265.01 91.8351C265.193 97.5039 266.884 103.137 269.95 107.931C274.523 115.231 282.201 120.529 290.696 122.25C295.022 123.145 299.513 123.094 303.868 122.391C311.285 121.033 318.171 117.282 323.423 111.925C325.612 114.426 327.919 116.822 330.154 119.284C337.584 119.271 345.017 119.314 352.45 119.263C345.551 111.831 338.701 104.351 331.843 96.8774ZM36.6963 73.7118C33.9119 76.6599 29.9831 78.3472 25.9661 78.7949C23.0788 78.9152 20.1885 78.8254 17.2987 78.8514V39.2956C20.6889 39.38 24.1435 39.004 27.4665 39.84C31.4809 40.7144 35.2088 42.8956 37.8021 46.069C44.2371 53.8851 43.7451 66.4323 36.6963 73.7118ZM58.3654 50.4594C56.522 42.4866 51.9433 35.0765 45.2944 30.1741C38.9342 25.4194 30.924 23.1081 23.0095 23.0722C15.339 23.0747 7.66942 23.0722 0.00185625 23.0722C-0.000618751 55.1463 -0.000618751 87.2125 0.00185625 119.285H17.2987C17.2987 111.256 17.2957 103.224 17.2987 95.198C21.4364 95.1189 25.6102 95.4336 29.7197 94.8199C36.4567 93.8813 42.8867 90.8434 47.8031 86.1771C54.395 80.0228 58.3936 71.347 59.2163 62.4464C59.4227 58.4345 59.3579 54.376 58.3654 50.4594ZM127.47 23.0742C133.286 23.0718 139.102 23.0791 144.918 23.0718C144.957 23.6059 144.991 24.1405 145.006 24.6771C144.993 25.7409 144.998 26.8048 144.993 27.8736C144.995 28.9374 145.003 30.0037 144.993 31.0695C144.993 32.6194 145.003 34.1688 144.993 35.7182C144.995 36.2042 144.995 36.6902 144.998 37.1762C144.929 39.5003 145.032 41.8268 144.993 44.1538C145.019 47.3527 144.929 50.5482 144.993 53.7447C145.008 58.6898 144.995 63.632 144.993 68.5723C144.995 69.4417 144.993 70.3112 145.003 71.188C144.941 72.2542 144.941 73.3231 145.003 74.3893C144.993 75.164 144.995 75.9362 144.995 76.7114C144.88 80.0861 145.159 83.4667 144.802 86.834C144.3 92.6589 142.699 98.4371 139.772 103.526C136.779 108.793 132.332 113.234 127.021 116.203C121.094 119.537 114.228 121.048 107.445 121.048C99.8989 121.13 92.2239 119.34 85.8171 115.295C79.6534 111.452 74.8959 105.538 72.2665 98.821C70.0855 93.3795 69.245 87.4805 69.2886 81.6512C69.2915 62.1263 69.2886 42.6015 69.2886 23.0742C75.1489 23.0718 81.0092 23.0718 86.869 23.0718C86.872 42.9977 86.869 62.9187 86.872 82.8402C87.0472 88.427 88.259 94.328 92.0304 98.6679C95.1167 102.298 99.8266 104.234 104.532 104.599C109.436 105.077 114.672 104.421 118.905 101.769C122.306 99.6468 124.639 96.1617 125.871 92.4208C126.817 89.7182 127.166 86.8595 127.4 84.0239C127.552 77.0305 127.423 70.0372 127.465 63.039C127.465 49.723 127.465 36.3956 127.47 23.0742ZM211.135 23.0919C216.957 23.0541 222.778 23.0821 228.594 23.0718C228.599 49.6208 228.594 76.1611 228.599 102.702C238.556 102.715 248.518 102.674 258.477 102.72C258.469 108.238 258.472 113.753 258.477 119.271C242.694 119.297 226.916 119.297 211.137 119.271C211.137 87.2125 211.137 55.1507 211.135 23.0919ZM403.863 93.597C403.425 95.8749 402.179 98.0233 400.318 99.4421C398.106 101.194 395.343 102.069 392.604 102.554C387.35 103.416 382.008 102.971 376.708 103.083C376.715 94.7375 376.703 86.3892 376.715 78.0458C380.668 78.0713 384.617 77.9771 388.567 78.1096C392.398 78.3472 396.399 78.9226 399.643 81.0886C401.942 82.5589 403.502 85.0519 403.914 87.724C404.216 89.6717 404.199 91.6548 403.863 93.597ZM376.708 38.7585C380.595 38.8125 384.514 38.5484 388.369 39.2136C391.135 39.7202 393.955 40.8018 395.824 42.98C397.59 45.0714 398.173 47.8893 398.106 50.5585C398.173 53.5886 397.16 56.7747 394.839 58.8327C392.39 60.9781 389.072 61.8092 385.888 62.0395C382.825 62.1057 379.77 62.0493 376.708 62.0674V38.7585ZM419.234 78.578C416.857 73.6736 412.616 69.7741 407.71 67.4112C407.73 67.3155 407.747 67.2193 407.761 67.1226C411.339 64.0312 413.931 59.8096 414.931 55.1968C415.684 51.8448 415.511 48.367 414.975 44.9948C414.284 41.707 413.041 38.513 411.159 35.7113C408.444 31.6473 404.559 28.3979 400.15 26.2658C396.606 24.626 392.713 23.9412 388.858 23.4782C386.512 23.3148 384.171 23.1253 381.825 23.084C374.33 23.056 366.829 23.0821 359.326 23.0718V119.284C370.347 119.23 381.369 119.397 392.383 119.2C400.202 118.56 407.996 115.574 413.647 110.071C418.038 105.929 421.002 100.299 421.734 94.3207C422.276 88.9891 421.626 83.4289 419.234 78.578ZM431.132 23.0718C451.004 23.0718 470.874 23.0718 490.741 23.0742C490.733 28.4823 490.767 33.8894 490.725 39.298C476.67 39.3083 462.614 39.2646 448.555 39.3211C448.563 46.8963 448.563 54.4716 448.555 62.0468C461.897 62.0984 475.239 62.0547 488.58 62.0674C488.585 67.394 488.58 72.7221 488.585 78.0409C475.244 78.0585 461.904 78.0281 448.563 78.0585C448.555 86.3892 448.567 94.7247 448.555 103.058C462.614 103.117 476.674 103.066 490.741 103.083C490.746 108.486 490.741 113.881 490.741 119.284H431.132V23.0718ZM530.212 77.982C534.102 68.3116 538.016 58.6515 541.849 48.961C545.73 58.626 549.546 68.319 553.459 77.9766C545.71 78.0012 537.961 78.0033 530.212 77.982ZM548.801 23.2912C548.702 22.7846 548.089 22.9024 547.735 22.8769C543.804 22.8872 539.872 22.8872 535.948 22.8769C535.575 22.9201 535.02 22.7723 534.837 23.1837C521.663 55.214 508.47 87.2424 495.304 119.276C501.561 119.296 507.821 119.284 514.078 119.284C517.352 110.946 520.608 102.597 523.875 94.2559C535.845 94.2637 547.813 94.2559 559.78 94.2637C563.045 102.605 566.277 110.96 569.566 119.288C576.236 119.271 582.906 119.301 589.579 119.271C575.992 87.2758 562.392 55.2837 548.801 23.2912ZM636.209 58.9863C635.315 62.1185 633.205 64.8903 630.369 66.5393C626.26 68.994 621.316 69.5949 616.597 69.59C614.767 69.5821 612.941 69.5821 611.119 69.5821V39.2956C616.089 39.3182 621.14 39.0167 625.999 40.3157C628.088 40.9264 630.158 41.7218 631.925 43.0159C634.188 44.5883 635.773 47.0199 636.444 49.6665C637.196 52.7221 637.06 55.9666 636.209 58.9863ZM650.796 103.572C646.704 95.9113 642.791 88.1457 639.22 80.2319C642.018 78.6722 644.614 76.7365 646.833 74.4227C649.662 71.5768 651.673 68.0303 653.001 64.2717C655.746 55.8007 655.449 46.0611 650.969 38.2194C648.927 34.6749 645.993 31.6577 642.552 29.4205C637.372 25.9864 631.236 24.2834 625.118 23.4704C622.96 23.3015 620.812 23.0487 618.654 23.0718C610.32 23.0821 601.992 23.0585 593.657 23.084C593.664 55.1487 593.664 87.2125 593.657 119.276C599.487 119.289 605.297 119.297 611.119 119.276V86.965C611.673 86.9572 612.235 86.9523 612.799 86.9262C614.23 86.7196 615.687 86.8163 617.126 86.6248C618.608 86.5021 620.065 86.2105 621.552 86.1339C622.174 87.7446 622.971 89.2788 623.687 90.8439C628.206 100.493 633.085 109.973 638.313 119.264C645.545 119.31 652.769 119.289 660 119.272C656.726 114.158 653.684 108.901 650.796 103.572ZM156.752 23.0718H174.175C174.175 49.6154 174.17 76.1611 174.175 102.702H204.019C204.019 108.23 204.022 113.761 204.019 119.284H156.752C156.749 87.2174 156.752 55.1463 156.752 23.0718Z" fill="#161413"/>
</svg>
