<svg width="86" height="28" viewBox="0 0 86 28" fill="none" xmlns="http://www.w3.org/2000/svg">
<path d="M73.8316 27.7261C71.1997 27.7261 68.9779 25.2928 68.9779 21.4544C68.9779 13.6061 75.985 12.1667 81.283 12.578C81.2147 9.18509 80.4285 7.64286 78.6853 7.64286C77.1813 7.64286 74.8912 8.8081 71.6098 11.0358L70.5844 7.60859C72.8404 7.33442 74.9596 7.12879 76.8395 7.12879C81.5565 7.12879 84.7011 8.29402 84.7011 11.9268V22.6196C84.7011 25.9097 85.4189 26.9721 86 27.3491V27.4176H81.283V19.5694C79.7791 25.3271 76.4293 27.7261 73.8316 27.7261ZM75.3014 25.9097C77.6599 25.9097 80.6336 22.7224 81.283 17.2732V13.0578C74.8228 12.6808 72.396 15.1484 72.396 20.9403C72.396 24.3675 73.6949 25.9097 75.3014 25.9097Z" fill="#E91C2D"/>
<path d="M67.9583 27.4172H61.2588V27.3487C61.8741 27.0059 62.8995 26.0121 62.8995 22.6192V6.51144C62.8995 3.22136 62.1817 2.15893 61.6007 1.78194V1.7134H66.3176V22.6192C66.3176 26.0463 67.3772 27.0402 67.9583 27.3487V27.4172Z" fill="#E91C2D"/>
<path d="M60.2342 27.4176H44.135L56.4743 8.08831H52.6802C51.2446 8.08831 48.2367 8.9451 45.5364 11.0357L44.511 7.6085H60.2342L47.8949 26.9378H50.5952C51.8941 26.9378 56.7478 26.4922 59.2088 23.9904L60.2342 27.4176Z" fill="#E91C2D"/>
<path d="M38.1835 27.4174H31.4841V27.3489C32.0993 27.0062 33.1248 26.0123 33.1248 22.6194V12.4064C33.1248 9.11633 32.407 8.05391 31.8259 7.67692V7.60838H36.5429V15.6622C38.081 12.2008 39.6533 7.5741 43.4474 7.5741L44.131 11.0013C42.6612 10.7956 38.6621 10.6586 36.5429 16.8275V22.6194C36.5429 26.0466 37.6025 27.0404 38.1835 27.3489V27.4174Z" fill="#E91C2D"/>
<path d="M18.6215 27.7261C15.9895 27.7261 13.7678 25.2928 13.7678 21.4544C13.7678 13.6061 20.7748 12.1667 26.0729 12.578C26.0045 9.18509 25.2184 7.64286 23.4751 7.64286C21.9712 7.64286 19.6811 8.8081 16.3997 11.0358L15.3743 7.60859C17.6302 7.33442 19.7494 7.12879 21.6294 7.12879C26.3463 7.12879 29.491 8.29402 29.491 11.9268V22.6196C29.491 25.9097 30.2088 26.9721 30.7898 27.3491V27.4176H26.0729V19.5694C24.5689 25.3271 21.2192 27.7261 18.6215 27.7261ZM20.0912 25.9097C22.4497 25.9097 25.4235 22.7224 26.0729 17.2732V13.0578C19.6127 12.6808 17.1859 15.1484 17.1859 20.9403C17.1859 24.3675 18.4847 25.9097 20.0912 25.9097Z" fill="#E91C2D"/>
<path d="M8.71613 28C4.4777 28 2.05085 26.0808 2.05085 21.4198V11.0012C2.05085 9.76744 1.64068 8.19094 0 8.08813V7.60832C2.70029 7.60832 5.12713 4.55814 5.12713 0H5.46894V7.67687L12.9546 7.60832L11.895 10.6585C10.4252 8.97919 8.4085 8.15667 5.46894 8.15667V23.4076C5.46894 26.1493 6.46019 27.4517 7.8616 27.4517C9.19466 27.4517 10.8695 26.2864 12.3735 23.9902L13.3989 27.4174C11.6557 27.7944 10.0834 28 8.71613 28Z" fill="#E91C2D"/>
</svg>
