<svg width="64" height="64" viewBox="0 0 64 64" fill="none" xmlns="http://www.w3.org/2000/svg">
<rect width="64" height="64" rx="12" fill="white"/>
<path d="M36.5638 60C28.023 60 23.1327 56.1616 23.1327 46.8397V26.0024C23.1327 23.5349 22.3061 20.3819 19 20.1763V19.2166C24.4413 19.2166 29.3316 13.1163 29.3316 4H30.0204V19.3537L45.1046 19.2166L42.9694 25.317C40.0077 21.9584 35.9439 20.3133 30.0204 20.3133V50.8152C30.0204 56.2987 32.0179 58.9033 34.8418 58.9033C37.5281 58.9033 40.9031 56.5728 43.9337 51.9804L46 58.8348C42.4872 59.5887 39.3189 60 36.5638 60Z" fill="#E91C2D"/>
</svg>
