<svg width="142" height="50" viewBox="0 0 142 50" fill="none" xmlns="http://www.w3.org/2000/svg">
<rect x="0.5" y="0.5" width="141" height="49" rx="5.5" stroke="#737373"/>
<path d="M33.9966 37.8766C32.4459 39.3542 30.7527 39.1209 29.1229 38.421C27.3981 37.7055 25.8157 37.6744 23.996 38.421C21.7174 39.3853 20.5148 39.1053 19.1539 37.8766C11.4319 30.0532 12.5712 18.1391 21.3376 17.7036C23.4738 17.8125 24.9612 18.8546 26.2113 18.9479C28.0785 18.5746 29.8666 17.5014 31.8604 17.6414C34.2498 17.828 36.0537 18.7612 37.2405 20.441C32.3035 23.3496 33.4744 29.7421 38 31.5307C37.098 33.8638 35.9271 36.1813 33.9808 37.8922L33.9966 37.8766ZM26.0531 17.6103C25.8157 14.1418 28.6798 11.28 31.9712 11C32.43 15.0128 28.2684 17.9991 26.0531 17.6103Z" fill="#171717"/>
<path d="M46.6133 16.1367C46.1888 16.1367 45.819 16.0703 45.5039 15.9375C45.1888 15.8021 44.9401 15.6146 44.7578 15.375C44.5755 15.1354 44.4714 14.8581 44.4453 14.543L44.4414 14.4922H45.3047L45.3086 14.5352C45.3268 14.7044 45.3932 14.8516 45.5078 14.9766C45.625 15.1016 45.7812 15.1992 45.9766 15.2695C46.1745 15.3398 46.3997 15.375 46.6523 15.375C46.8893 15.375 47.1003 15.3372 47.2852 15.2617C47.4701 15.1862 47.6146 15.082 47.7188 14.9492C47.8255 14.8164 47.8789 14.6641 47.8789 14.4922V14.4883C47.8789 14.2721 47.7969 14.0924 47.6328 13.9492C47.4688 13.806 47.2005 13.694 46.8281 13.6133L46.2109 13.4844C45.6406 13.362 45.2253 13.168 44.9648 12.9023C44.7044 12.6341 44.5742 12.2917 44.5742 11.875V11.8711C44.5768 11.5456 44.6641 11.2591 44.8359 11.0117C45.0104 10.7643 45.2513 10.5716 45.5586 10.4336C45.8659 10.2956 46.2188 10.2266 46.6172 10.2266C47.0156 10.2266 47.3633 10.2956 47.6602 10.4336C47.9596 10.569 48.1953 10.7539 48.3672 10.9883C48.5417 11.2227 48.6393 11.487 48.6602 11.7812L48.6641 11.832H47.8086L47.8008 11.7812C47.7773 11.6276 47.7135 11.4909 47.6094 11.3711C47.5078 11.2513 47.3711 11.1576 47.1992 11.0898C47.0299 11.0195 46.832 10.9857 46.6055 10.9883C46.3867 10.9883 46.1914 11.0221 46.0195 11.0898C45.8477 11.1549 45.7109 11.25 45.6094 11.375C45.5104 11.5 45.4609 11.651 45.4609 11.8281V11.832C45.4609 12.0404 45.5404 12.2148 45.6992 12.3555C45.8607 12.4935 46.1224 12.6016 46.4844 12.6797L47.1016 12.8164C47.4948 12.8997 47.8138 13.0104 48.0586 13.1484C48.3034 13.2865 48.4818 13.457 48.5938 13.6602C48.7083 13.8607 48.7656 14.1003 48.7656 14.3789V14.3828C48.7656 14.7422 48.6771 15.0534 48.5 15.3164C48.3255 15.5768 48.0768 15.7786 47.7539 15.9219C47.431 16.0651 47.0508 16.1367 46.6133 16.1367ZM46.4258 17.9414C46.3164 17.9414 46.2083 17.9349 46.1016 17.9219C45.9974 17.9115 45.8984 17.8945 45.8047 17.8711V17.3906C45.8385 17.3984 45.8997 17.4089 45.9883 17.4219C46.0768 17.4349 46.1771 17.4414 46.2891 17.4414C46.4062 17.4414 46.5156 17.4206 46.6172 17.3789C46.7214 17.3372 46.7734 17.2617 46.7734 17.1523V17.1445C46.7734 17.0247 46.724 16.944 46.625 16.9023C46.526 16.8607 46.3802 16.8398 46.1875 16.8398H46.0391V16.4766L46.4219 15.918H46.9727V16.0117L46.6953 16.3984C46.9453 16.4036 47.1471 16.4714 47.3008 16.6016C47.4544 16.7318 47.5312 16.9049 47.5312 17.1211V17.1289C47.5312 17.319 47.4805 17.474 47.3789 17.5938C47.2773 17.7135 47.1419 17.8008 46.9727 17.8555C46.806 17.9128 46.6237 17.9414 46.4258 17.9414ZM49.2945 16V11.7578H50.1461V16H49.2945ZM49.7242 11C49.5784 11 49.4534 10.9479 49.3492 10.8438C49.2451 10.7396 49.193 10.6146 49.193 10.4688C49.193 10.3229 49.2451 10.1992 49.3492 10.0977C49.4534 9.99349 49.5784 9.94141 49.7242 9.94141C49.8701 9.94141 49.9951 9.99349 50.0992 10.0977C50.2034 10.1992 50.2555 10.3229 50.2555 10.4688C50.2555 10.6146 50.2034 10.7396 50.0992 10.8438C49.9951 10.9479 49.8701 11 49.7242 11ZM50.8391 16V11.7578H51.6867V12.4102H51.7531C51.8469 12.1758 51.9927 11.9948 52.1906 11.8672C52.3911 11.7396 52.6307 11.6758 52.9094 11.6758C53.1021 11.6758 53.2753 11.707 53.4289 11.7695C53.5826 11.832 53.7141 11.9206 53.8234 12.0352C53.9354 12.1471 54.0227 12.2799 54.0852 12.4336H54.1516C54.2219 12.2799 54.3208 12.1471 54.4484 12.0352C54.576 11.9206 54.7245 11.832 54.8938 11.7695C55.0656 11.707 55.2479 11.6758 55.4406 11.6758C55.7271 11.6758 55.9719 11.7318 56.175 11.8438C56.3781 11.9531 56.5331 12.112 56.6398 12.3203C56.7466 12.5286 56.8 12.7799 56.8 13.0742V16H55.9523V13.2773C55.9523 13.082 55.9224 12.9206 55.8625 12.793C55.8026 12.6628 55.7115 12.5651 55.5891 12.5C55.4693 12.4349 55.3182 12.4023 55.1359 12.4023C54.9563 12.4023 54.7987 12.444 54.6633 12.5273C54.5305 12.6081 54.4263 12.7174 54.3508 12.8555C54.2779 12.9909 54.2414 13.1445 54.2414 13.3164V16H53.3938V13.1914C53.3938 13.0299 53.3599 12.8906 53.2922 12.7734C53.2271 12.6536 53.1333 12.5625 53.0109 12.5C52.8885 12.4349 52.744 12.4023 52.5773 12.4023C52.4081 12.4023 52.2557 12.4466 52.1203 12.5352C51.9875 12.6237 51.882 12.7435 51.8039 12.8945C51.7258 13.043 51.6867 13.2096 51.6867 13.3945V16H50.8391ZM58.9969 16.0703C58.6427 16.0703 58.3328 15.9818 58.0672 15.8047C57.8042 15.625 57.5997 15.3711 57.4539 15.043C57.3107 14.7148 57.2391 14.3281 57.2391 13.8828V13.875C57.2391 13.4271 57.3107 13.0391 57.4539 12.7109C57.5971 12.3828 57.8003 12.1302 58.0633 11.9531C58.3263 11.7734 58.6375 11.6836 58.9969 11.6836C59.1922 11.6836 59.3745 11.7148 59.5437 11.7773C59.713 11.8372 59.8628 11.9232 59.993 12.0352C60.1232 12.1445 60.226 12.276 60.3016 12.4297H60.3641V10.0938H61.2156V16H60.3641V15.332H60.3016C60.2182 15.4857 60.1128 15.6185 59.9852 15.7305C59.8576 15.8398 59.7104 15.9245 59.5437 15.9844C59.3771 16.0417 59.1948 16.0703 58.9969 16.0703ZM59.2391 15.3438C59.4734 15.3438 59.6766 15.2852 59.8484 15.168C60.0203 15.0508 60.1518 14.8828 60.243 14.6641C60.3341 14.4427 60.3797 14.1823 60.3797 13.8828V13.875C60.3797 13.5729 60.3328 13.3125 60.2391 13.0938C60.1479 12.875 60.0164 12.707 59.8445 12.5898C59.6753 12.4701 59.4734 12.4102 59.2391 12.4102C59.0047 12.4102 58.8016 12.4701 58.6297 12.5898C58.4604 12.707 58.3302 12.875 58.2391 13.0938C58.1505 13.3099 58.1062 13.5703 58.1062 13.875V13.8828C58.1062 14.1849 58.1505 14.4453 58.2391 14.6641C58.3302 14.8828 58.4604 15.0508 58.6297 15.168C58.8016 15.2852 59.0047 15.3438 59.2391 15.3438ZM61.9477 16V11.7578H62.7992V16H61.9477ZM62.3773 11C62.2315 11 62.1065 10.9479 62.0023 10.8438C61.8982 10.7396 61.8461 10.6146 61.8461 10.4688C61.8461 10.3229 61.8982 10.1992 62.0023 10.0977C62.1065 9.99349 62.2315 9.94141 62.3773 9.94141C62.5232 9.94141 62.6482 9.99349 62.7523 10.0977C62.8565 10.1992 62.9086 10.3229 62.9086 10.4688C62.9086 10.6146 62.8565 10.7396 62.7523 10.8438C62.6482 10.9479 62.5232 11 62.3773 11ZM66.7359 16.0273C66.2724 16.0273 65.9365 15.9388 65.7281 15.7617C65.5224 15.582 65.4195 15.2891 65.4195 14.8828V12.4258H64.7555V11.7578H65.4195V10.6875H66.2867V11.7578H67.1969V12.4258H66.2867V14.6758C66.2867 14.9049 66.3323 15.0703 66.4234 15.1719C66.5146 15.2708 66.6656 15.3203 66.8766 15.3203C66.9391 15.3203 66.9924 15.319 67.0367 15.3164C67.0836 15.3138 67.137 15.3099 67.1969 15.3047V15.9844C67.1292 15.9948 67.0562 16.0039 66.9781 16.0117C66.9 16.0221 66.8193 16.0273 66.7359 16.0273ZM69.3859 16.082C68.9719 16.082 68.6164 15.9935 68.3195 15.8164C68.0227 15.6367 67.7935 15.3828 67.632 15.0547C67.4732 14.7266 67.3937 14.3385 67.3937 13.8906V13.8867C67.3937 13.444 67.4732 13.0573 67.632 12.7266C67.7935 12.3958 68.0201 12.138 68.3117 11.9531C68.606 11.7682 68.9497 11.6758 69.343 11.6758C69.7388 11.6758 70.0786 11.7643 70.3625 11.9414C70.649 12.1185 70.869 12.3672 71.0227 12.6875C71.1763 13.0052 71.2531 13.3776 71.2531 13.8047V14.1016H67.8234V13.4961H70.8312L70.425 14.0586V13.7188C70.425 13.4167 70.3781 13.1667 70.2844 12.9688C70.1932 12.7682 70.0669 12.6185 69.9055 12.5195C69.744 12.4206 69.5578 12.3711 69.3469 12.3711C69.1359 12.3711 68.9471 12.4232 68.7805 12.5273C68.6164 12.6289 68.4862 12.7799 68.3898 12.9805C68.2961 13.181 68.2492 13.4271 68.2492 13.7188V14.0586C68.2492 14.3372 68.2961 14.5755 68.3898 14.7734C68.4836 14.9714 68.6164 15.1224 68.7883 15.2266C68.9628 15.3307 69.1685 15.3828 69.4055 15.3828C69.5878 15.3828 69.744 15.3581 69.8742 15.3086C70.007 15.2565 70.1151 15.1927 70.1984 15.1172C70.2844 15.0417 70.343 14.9674 70.3742 14.8945L70.3898 14.8633H71.2102L71.2023 14.8984C71.1659 15.0391 71.1021 15.1797 71.0109 15.3203C70.9198 15.4583 70.7987 15.5846 70.6477 15.6992C70.4992 15.8138 70.3195 15.9062 70.1086 15.9766C69.9003 16.0469 69.6594 16.082 69.3859 16.082ZM71.7625 16V10.0938H72.6102V16H71.7625ZM75.1156 16.082C74.7016 16.082 74.3461 15.9935 74.0492 15.8164C73.7523 15.6367 73.5232 15.3828 73.3617 15.0547C73.2029 14.7266 73.1234 14.3385 73.1234 13.8906V13.8867C73.1234 13.444 73.2029 13.0573 73.3617 12.7266C73.5232 12.3958 73.7497 12.138 74.0414 11.9531C74.3357 11.7682 74.6794 11.6758 75.0727 11.6758C75.4685 11.6758 75.8083 11.7643 76.0922 11.9414C76.3786 12.1185 76.5987 12.3672 76.7523 12.6875C76.906 13.0052 76.9828 13.3776 76.9828 13.8047V14.1016H73.5531V13.4961H76.5609L76.1547 14.0586V13.7188C76.1547 13.4167 76.1078 13.1667 76.0141 12.9688C75.9229 12.7682 75.7966 12.6185 75.6352 12.5195C75.4737 12.4206 75.2875 12.3711 75.0766 12.3711C74.8656 12.3711 74.6768 12.4232 74.5102 12.5273C74.3461 12.6289 74.2159 12.7799 74.1195 12.9805C74.0258 13.181 73.9789 13.4271 73.9789 13.7188V14.0586C73.9789 14.3372 74.0258 14.5755 74.1195 14.7734C74.2133 14.9714 74.3461 15.1224 74.518 15.2266C74.6924 15.3307 74.8982 15.3828 75.1352 15.3828C75.3174 15.3828 75.4737 15.3581 75.6039 15.3086C75.7367 15.2565 75.8448 15.1927 75.9281 15.1172C76.0141 15.0417 76.0727 14.9674 76.1039 14.8945L76.1195 14.8633H76.9398L76.932 14.8984C76.8956 15.0391 76.8318 15.1797 76.7406 15.3203C76.6495 15.4583 76.5284 15.5846 76.3773 15.6992C76.2289 15.8138 76.0492 15.9062 75.8383 15.9766C75.6299 16.0469 75.3891 16.082 75.1156 16.082ZM77.7539 16V12.4258H77.0547V11.7578H77.7539V11.3125C77.7539 11.0286 77.8008 10.7943 77.8945 10.6094C77.9909 10.4219 78.1367 10.2826 78.332 10.1914C78.5273 10.1003 78.7734 10.0547 79.0703 10.0547C79.1641 10.0547 79.2513 10.0586 79.332 10.0664C79.4154 10.0716 79.4948 10.0807 79.5703 10.0938V10.7188C79.5312 10.7109 79.4831 10.7057 79.4258 10.7031C79.3711 10.6979 79.3112 10.6953 79.2461 10.6953C79.0117 10.6953 78.8438 10.7513 78.7422 10.8633C78.6432 10.9753 78.5938 11.138 78.5938 11.3516V11.7578H79.5312V12.4258H78.6016V16H77.7539ZM81.5797 16.082C81.1656 16.082 80.8076 15.9935 80.5055 15.8164C80.206 15.6393 79.9755 15.3867 79.8141 15.0586C79.6526 14.7279 79.5719 14.3359 79.5719 13.8828V13.875C79.5719 13.4193 79.6526 13.0273 79.8141 12.6992C79.9781 12.3711 80.2099 12.1185 80.5094 11.9414C80.8115 11.7643 81.1682 11.6758 81.5797 11.6758C81.9938 11.6758 82.3505 11.7643 82.65 11.9414C82.9495 12.1159 83.1799 12.3685 83.3414 12.6992C83.5055 13.0273 83.5875 13.4193 83.5875 13.875V13.8828C83.5875 14.3359 83.5055 14.7279 83.3414 15.0586C83.1799 15.3867 82.9495 15.6393 82.65 15.8164C82.3531 15.9935 81.9964 16.082 81.5797 16.082ZM81.5797 15.3711C81.8219 15.3711 82.0276 15.3125 82.1969 15.1953C82.3661 15.0755 82.4951 14.9049 82.5836 14.6836C82.6721 14.4622 82.7164 14.1953 82.7164 13.8828V13.875C82.7164 13.5599 82.6721 13.2917 82.5836 13.0703C82.4951 12.849 82.3661 12.6797 82.1969 12.5625C82.0276 12.4427 81.8219 12.3828 81.5797 12.3828C81.3375 12.3828 81.1318 12.4427 80.9625 12.5625C80.7932 12.6797 80.663 12.849 80.5719 13.0703C80.4833 13.2917 80.4391 13.5599 80.4391 13.875V13.8828C80.4391 14.1953 80.4833 14.4622 80.5719 14.6836C80.663 14.9049 80.7932 15.0755 80.9625 15.1953C81.1318 15.3125 81.3375 15.3711 81.5797 15.3711ZM84.0578 16V11.7578H84.9055V12.3984H84.9719C85.076 12.1719 85.2297 11.9948 85.4328 11.8672C85.6359 11.7396 85.8924 11.6758 86.2023 11.6758C86.6789 11.6758 87.0435 11.8125 87.2961 12.0859C87.5487 12.3594 87.675 12.7487 87.675 13.2539V16H86.8234V13.4531C86.8234 13.099 86.7492 12.8359 86.6008 12.6641C86.4549 12.4896 86.2258 12.4023 85.9133 12.4023C85.7076 12.4023 85.5292 12.4479 85.3781 12.5391C85.2271 12.6276 85.1099 12.7552 85.0266 12.9219C84.9458 13.0859 84.9055 13.2826 84.9055 13.5117V16H84.0578ZM89.7313 16.082C89.4135 16.082 89.1453 16.0208 88.9266 15.8984C88.7104 15.7734 88.5477 15.5938 88.4383 15.3594C88.3315 15.1224 88.2781 14.8372 88.2781 14.5039V11.7578H89.1258V14.3047C89.1258 14.6536 89.1948 14.9154 89.3328 15.0898C89.4708 15.2643 89.6961 15.3516 90.0086 15.3516C90.1753 15.3516 90.3237 15.3268 90.4539 15.2773C90.5841 15.2253 90.6935 15.151 90.782 15.0547C90.8706 14.9583 90.9357 14.8424 90.9773 14.707C91.0216 14.5716 91.0438 14.418 91.0438 14.2461V11.7578H91.8953V16H91.0438V15.3594H90.9813C90.9135 15.5104 90.8211 15.6406 90.7039 15.75C90.5867 15.8568 90.4461 15.9388 90.282 15.9961C90.1206 16.0534 89.937 16.082 89.7313 16.082ZM92.5766 16V11.7578H93.4242V12.3984H93.4906C93.5948 12.1719 93.7484 11.9948 93.9516 11.8672C94.1547 11.7396 94.4112 11.6758 94.7211 11.6758C95.1977 11.6758 95.5622 11.8125 95.8148 12.0859C96.0674 12.3594 96.1937 12.7487 96.1937 13.2539V16H95.3422V13.4531C95.3422 13.099 95.268 12.8359 95.1195 12.6641C94.9737 12.4896 94.7445 12.4023 94.432 12.4023C94.2263 12.4023 94.0479 12.4479 93.8969 12.5391C93.7458 12.6276 93.6286 12.7552 93.5453 12.9219C93.4646 13.0859 93.4242 13.2826 93.4242 13.5117V16H92.5766ZM98 16.0703C97.7318 16.0703 97.4909 16.0195 97.2773 15.918C97.0664 15.8138 96.8997 15.6667 96.7773 15.4766C96.6549 15.2865 96.5938 15.0638 96.5938 14.8086V14.8008C96.5938 14.5456 96.6549 14.3281 96.7773 14.1484C96.9023 13.9688 97.082 13.8281 97.3164 13.7266C97.5534 13.6224 97.8398 13.5599 98.1758 13.5391L99.7422 13.4453V14.043L98.293 14.1367C98.0013 14.1549 97.7865 14.2174 97.6484 14.3242C97.5104 14.4284 97.4414 14.5755 97.4414 14.7656V14.7734C97.4414 14.9661 97.5156 15.1185 97.6641 15.2305C97.8125 15.3398 98 15.3945 98.2266 15.3945C98.4375 15.3945 98.625 15.3529 98.7891 15.2695C98.9557 15.1836 99.0859 15.069 99.1797 14.9258C99.2734 14.7799 99.3203 14.6159 99.3203 14.4336V13.0977C99.3203 12.8633 99.2474 12.6849 99.1016 12.5625C98.9583 12.4375 98.7448 12.375 98.4609 12.375C98.224 12.375 98.0299 12.4167 97.8789 12.5C97.7305 12.5833 97.6315 12.7005 97.582 12.8516L97.5742 12.8633H96.7578L96.7617 12.8359C96.7956 12.6016 96.888 12.3984 97.0391 12.2266C97.1927 12.0521 97.3932 11.9167 97.6406 11.8203C97.8906 11.724 98.1758 11.6758 98.4961 11.6758C98.8529 11.6758 99.1549 11.7331 99.4023 11.8477C99.6523 11.9596 99.8411 12.1224 99.9688 12.3359C100.099 12.5469 100.164 12.8008 100.164 13.0977V16H99.3203V15.3984H99.2578C99.1745 15.5417 99.0703 15.6641 98.9453 15.7656C98.8203 15.8646 98.6784 15.9401 98.5195 15.9922C98.3607 16.0443 98.1875 16.0703 98 16.0703ZM102.476 16V11.7578H103.327V16H102.476ZM102.905 11C102.76 11 102.635 10.9479 102.53 10.8438C102.426 10.7396 102.374 10.6146 102.374 10.4688C102.374 10.3229 102.426 10.1992 102.53 10.0977C102.635 9.99349 102.76 9.94141 102.905 9.94141C103.051 9.94141 103.176 9.99349 103.28 10.0977C103.385 10.1992 103.437 10.3229 103.437 10.4688C103.437 10.6146 103.385 10.7396 103.28 10.8438C103.176 10.9479 103.051 11 102.905 11ZM104.02 16V11.7578H104.868V12.3984H104.934C105.039 12.1719 105.192 11.9948 105.395 11.8672C105.598 11.7396 105.855 11.6758 106.165 11.6758C106.641 11.6758 107.006 11.8125 107.259 12.0859C107.511 12.3594 107.638 12.7487 107.638 13.2539V16H106.786V13.4531C106.786 13.099 106.712 12.8359 106.563 12.6641C106.417 12.4896 106.188 12.4023 105.876 12.4023C105.67 12.4023 105.492 12.4479 105.341 12.5391C105.19 12.6276 105.072 12.7552 104.989 12.9219C104.908 13.0859 104.868 13.2826 104.868 13.5117V16H104.02ZM109.827 16.0703C109.472 16.0703 109.162 15.9818 108.897 15.8047C108.634 15.625 108.429 15.3711 108.284 15.043C108.14 14.7148 108.069 14.3281 108.069 13.8828V13.875C108.069 13.4271 108.14 13.0391 108.284 12.7109C108.427 12.3828 108.63 12.1302 108.893 11.9531C109.156 11.7734 109.467 11.6836 109.827 11.6836C110.022 11.6836 110.204 11.7148 110.373 11.7773C110.543 11.8372 110.692 11.9232 110.823 12.0352C110.953 12.1445 111.056 12.276 111.131 12.4297H111.194V10.0938H112.045V16H111.194V15.332H111.131C111.048 15.4857 110.942 15.6185 110.815 15.7305C110.687 15.8398 110.54 15.9245 110.373 15.9844C110.207 16.0417 110.024 16.0703 109.827 16.0703ZM110.069 15.3438C110.303 15.3438 110.506 15.2852 110.678 15.168C110.85 15.0508 110.982 14.8828 111.073 14.6641C111.164 14.4427 111.209 14.1823 111.209 13.8828V13.875C111.209 13.5729 111.162 13.3125 111.069 13.0938C110.978 12.875 110.846 12.707 110.674 12.5898C110.505 12.4701 110.303 12.4102 110.069 12.4102C109.834 12.4102 109.631 12.4701 109.459 12.5898C109.29 12.707 109.16 12.875 109.069 13.0938C108.98 13.3099 108.936 13.5703 108.936 13.875V13.8828C108.936 14.1849 108.98 14.4453 109.069 14.6641C109.16 14.8828 109.29 15.0508 109.459 15.168C109.631 15.2852 109.834 15.3438 110.069 15.3438ZM112.777 16V11.7578H113.629V16H112.777ZM113.207 11C113.061 11 112.936 10.9479 112.832 10.8438C112.728 10.7396 112.676 10.6146 112.676 10.4688C112.676 10.3229 112.728 10.1992 112.832 10.0977C112.936 9.99349 113.061 9.94141 113.207 9.94141C113.353 9.94141 113.478 9.99349 113.582 10.0977C113.686 10.1992 113.738 10.3229 113.738 10.4688C113.738 10.6146 113.686 10.7396 113.582 10.8438C113.478 10.9479 113.353 11 113.207 11ZM114.322 16V11.7578H115.17V12.3984H115.236C115.311 12.1719 115.444 11.9961 115.634 11.8711C115.827 11.7461 116.064 11.6836 116.345 11.6836C116.416 11.6836 116.485 11.6875 116.552 11.6953C116.62 11.7031 116.675 11.7122 116.716 11.7227V12.5039C116.641 12.4883 116.565 12.4766 116.49 12.4688C116.417 12.4609 116.34 12.457 116.259 12.457C116.043 12.457 115.853 12.4987 115.689 12.582C115.528 12.6654 115.4 12.7826 115.306 12.9336C115.215 13.082 115.17 13.2591 115.17 13.4648V16H114.322Z" fill="#171717"/>
<path d="M44.5859 37L49.6738 22.9082H51.4512V25.3496H50.7969L46.8906 37H44.5859ZM47.0469 33.1914L47.6621 31.4336H54.0684L54.6836 33.1914H47.0469ZM54.8398 37L50.9336 25.3496V22.9082H52.0469L57.1445 37H54.8398ZM57.7914 40.5059V26.4727H59.9203V28.1621H60.0571C60.2589 27.7715 60.5193 27.4362 60.8383 27.1562C61.1573 26.8763 61.5219 26.6615 61.9321 26.5117C62.3487 26.362 62.8045 26.2871 63.2992 26.2871C64.1912 26.2871 64.9627 26.5117 65.6137 26.9609C66.2713 27.4036 66.7791 28.0319 67.1371 28.8457C67.4952 29.6595 67.6742 30.6198 67.6742 31.7266V31.7461C67.6742 32.8594 67.4952 33.8229 67.1371 34.6367C66.7791 35.4505 66.2745 36.0788 65.6235 36.5215C64.9724 36.9642 64.2009 37.1855 63.309 37.1855C62.8207 37.1855 62.365 37.1107 61.9418 36.9609C61.5252 36.8047 61.1541 36.5866 60.8285 36.3066C60.503 36.0267 60.2459 35.6947 60.0571 35.3105H59.9203V40.5059H57.7914ZM62.7035 35.3691C63.2895 35.3691 63.7908 35.2227 64.2074 34.9297C64.6241 34.6367 64.9431 34.2201 65.1645 33.6797C65.3923 33.1393 65.5063 32.4948 65.5063 31.7461V31.7266C65.5063 30.9714 65.3923 30.3236 65.1645 29.7832C64.9431 29.2428 64.6241 28.8294 64.2074 28.543C63.7908 28.25 63.2895 28.1035 62.7035 28.1035C62.1306 28.1035 61.6326 28.25 61.2094 28.543C60.7862 28.8359 60.4607 29.2526 60.2328 29.793C60.005 30.3333 59.891 30.9779 59.891 31.7266V31.7461C59.891 32.4883 60.005 33.1296 60.2328 33.6699C60.4672 34.2103 60.7927 34.6302 61.2094 34.9297C61.6326 35.2227 62.1306 35.3691 62.7035 35.3691ZM68.6532 40.5059V26.4727H70.7821V28.1621H70.9188C71.1206 27.7715 71.381 27.4362 71.7001 27.1562C72.0191 26.8763 72.3836 26.6615 72.7938 26.5117C73.2105 26.362 73.6662 26.2871 74.161 26.2871C75.0529 26.2871 75.8244 26.5117 76.4754 26.9609C77.133 27.4036 77.6408 28.0319 77.9989 28.8457C78.357 29.6595 78.536 30.6198 78.536 31.7266V31.7461C78.536 32.8594 78.357 33.8229 77.9989 34.6367C77.6408 35.4505 77.1363 36.0788 76.4852 36.5215C75.8342 36.9642 75.0627 37.1855 74.1708 37.1855C73.6825 37.1855 73.2267 37.1107 72.8036 36.9609C72.3869 36.8047 72.0158 36.5866 71.6903 36.3066C71.3648 36.0267 71.1076 35.6947 70.9188 35.3105H70.7821V40.5059H68.6532ZM73.5653 35.3691C74.1512 35.3691 74.6525 35.2227 75.0692 34.9297C75.4859 34.6367 75.8049 34.2201 76.0262 33.6797C76.2541 33.1393 76.368 32.4948 76.368 31.7461V31.7266C76.368 30.9714 76.2541 30.3236 76.0262 29.7832C75.8049 29.2428 75.4859 28.8294 75.0692 28.543C74.6525 28.25 74.1512 28.1035 73.5653 28.1035C72.9924 28.1035 72.4943 28.25 72.0711 28.543C71.648 28.8359 71.3225 29.2526 71.0946 29.793C70.8667 30.3333 70.7528 30.9779 70.7528 31.7266V31.7461C70.7528 32.4883 70.8667 33.1296 71.0946 33.6699C71.329 34.2103 71.6545 34.6302 72.0711 34.9297C72.4943 35.2227 72.9924 35.3691 73.5653 35.3691ZM88.3161 37.3223C87.2549 37.3223 86.3304 37.1562 85.5427 36.8242C84.7549 36.4857 84.1299 36.0202 83.6677 35.4277C83.212 34.8288 82.9515 34.1289 82.8864 33.3281L82.8767 33.2012H85.0349L85.0446 33.3086C85.0967 33.7383 85.266 34.1094 85.5525 34.4219C85.8454 34.7344 86.236 34.9785 86.7243 35.1543C87.2191 35.3236 87.779 35.4082 88.404 35.4082C89.0095 35.4082 89.5401 35.3171 89.9958 35.1348C90.4581 34.9525 90.8194 34.6953 91.0798 34.3633C91.3402 34.0312 91.4704 33.6471 91.4704 33.2109V33.2012C91.4704 32.6543 91.2653 32.2083 90.8552 31.8633C90.4515 31.5117 89.781 31.235 88.8435 31.0332L87.3103 30.7012C85.891 30.3952 84.8526 29.9134 84.195 29.2559C83.5375 28.5918 83.2087 27.7422 83.2087 26.707V26.6973C83.2152 25.8835 83.4366 25.1706 83.8728 24.5586C84.309 23.9401 84.9112 23.4583 85.6794 23.1133C86.4476 22.7617 87.3298 22.5859 88.3259 22.5859C89.3155 22.5859 90.1814 22.7585 90.9235 23.1035C91.6722 23.4421 92.2614 23.9076 92.6911 24.5C93.1273 25.0859 93.3715 25.75 93.4235 26.4922L93.4333 26.6289H91.3044L91.2849 26.5117C91.2198 26.1081 91.057 25.7565 90.7966 25.457C90.5427 25.1576 90.2009 24.9232 89.7712 24.7539C89.348 24.5781 88.8532 24.4935 88.2868 24.5C87.7334 24.5 87.2419 24.5846 86.8122 24.7539C86.3825 24.9167 86.044 25.1543 85.7966 25.4668C85.5557 25.7793 85.4353 26.1536 85.4353 26.5898V26.5996C85.4353 27.1204 85.6338 27.5534 86.031 27.8984C86.4346 28.2435 87.0889 28.5137 87.9939 28.709L89.5271 29.041C90.5101 29.2493 91.3077 29.526 91.9196 29.8711C92.5316 30.2161 92.9808 30.6426 93.2673 31.1504C93.5538 31.6582 93.697 32.2637 93.697 32.9668V32.9766C93.697 33.8685 93.4756 34.64 93.0329 35.291C92.5967 35.9355 91.975 36.4368 91.1677 36.7949C90.3669 37.1465 89.4164 37.3223 88.3161 37.3223ZM98.6701 37.0977C97.5438 37.0977 96.7234 36.873 96.2091 36.4238C95.6948 35.9746 95.4376 35.2422 95.4376 34.2266V28.1523H93.8263V26.4727H95.4376V23.7969H97.6056V26.4727H99.8029V28.1523H97.6056V33.8066C97.6056 34.36 97.7195 34.7572 97.9474 34.998C98.1818 35.2389 98.5496 35.3594 99.0509 35.3594C99.2007 35.3594 99.3309 35.3561 99.4415 35.3496C99.5522 35.3366 99.6727 35.3268 99.8029 35.3203V37C99.6466 37.026 99.4708 37.0488 99.2755 37.0684C99.0802 37.0879 98.8784 37.0977 98.6701 37.0977ZM105.079 37.2051C104.057 37.2051 103.171 36.987 102.422 36.5508C101.674 36.1081 101.098 35.4798 100.694 34.666C100.29 33.8457 100.088 32.8724 100.088 31.7461V31.7266C100.088 30.5938 100.29 29.6204 100.694 28.8066C101.104 27.9928 101.68 27.3678 102.422 26.9316C103.171 26.4889 104.053 26.2676 105.069 26.2676C106.098 26.2676 106.983 26.4889 107.725 26.9316C108.467 27.3678 109.04 27.9928 109.444 28.8066C109.854 29.6204 110.059 30.5938 110.059 31.7266V31.7461C110.059 32.8724 109.857 33.8457 109.454 34.666C109.05 35.4798 108.474 36.1081 107.725 36.5508C106.983 36.987 106.101 37.2051 105.079 37.2051ZM105.079 35.4277C105.671 35.4277 106.176 35.2812 106.592 34.9883C107.009 34.6953 107.328 34.2754 107.549 33.7285C107.777 33.1816 107.891 32.5208 107.891 31.7461V31.7266C107.891 30.9453 107.777 30.2812 107.549 29.7344C107.328 29.1875 107.006 28.7708 106.583 28.4844C106.166 28.1914 105.661 28.0449 105.069 28.0449C104.483 28.0449 103.978 28.1914 103.555 28.4844C103.139 28.7708 102.816 29.1875 102.588 29.7344C102.367 30.2812 102.256 30.9453 102.256 31.7266V31.7461C102.256 32.5208 102.367 33.1849 102.588 33.7383C102.816 34.2852 103.139 34.7051 103.555 34.998C103.978 35.2845 104.486 35.4277 105.079 35.4277ZM111.028 37V26.4727H113.157V28.1133H113.294C113.476 27.5339 113.798 27.0846 114.261 26.7656C114.723 26.4466 115.293 26.2871 115.97 26.2871C116.139 26.2871 116.302 26.2969 116.458 26.3164C116.621 26.3359 116.751 26.3555 116.849 26.375V28.3379C116.686 28.2988 116.513 28.2695 116.331 28.25C116.149 28.224 115.957 28.2109 115.755 28.2109C115.234 28.2109 114.778 28.3151 114.388 28.5234C113.997 28.7253 113.694 29.015 113.479 29.3926C113.265 29.7637 113.157 30.2031 113.157 30.7109V37H111.028ZM121.49 37.2051C120.461 37.2051 119.576 36.9837 118.833 36.541C118.098 36.0983 117.531 35.4701 117.134 34.6562C116.737 33.8424 116.538 32.8789 116.538 31.7656V31.7559C116.538 30.6556 116.737 29.6953 117.134 28.875C117.531 28.0547 118.091 27.4167 118.814 26.9609C119.543 26.4987 120.399 26.2676 121.382 26.2676C122.365 26.2676 123.212 26.4889 123.921 26.9316C124.631 27.3743 125.175 27.9928 125.552 28.7871C125.936 29.5749 126.128 30.4961 126.128 31.5508V32.293H117.613V30.7793H125.083L124.058 32.1758V31.3457C124.058 30.5905 123.944 29.9688 123.716 29.4805C123.488 28.9857 123.173 28.6178 122.769 28.377C122.372 28.1296 121.913 28.0059 121.392 28.0059C120.871 28.0059 120.406 28.1328 119.996 28.3867C119.585 28.6406 119.26 29.0182 119.019 29.5195C118.785 30.0143 118.667 30.623 118.667 31.3457V32.1855C118.667 32.8757 118.785 33.4648 119.019 33.9531C119.253 34.4414 119.585 34.8158 120.015 35.0762C120.445 35.3366 120.953 35.4668 121.538 35.4668C121.981 35.4668 122.365 35.4017 122.691 35.2715C123.023 35.1413 123.293 34.9818 123.501 34.793C123.71 34.5977 123.856 34.3991 123.941 34.1973L123.97 34.1191H126.011L125.992 34.207C125.907 34.5716 125.751 34.9329 125.523 35.291C125.295 35.6426 124.992 35.9648 124.615 36.2578C124.244 36.5443 123.794 36.7754 123.267 36.9512C122.746 37.1204 122.154 37.2051 121.49 37.2051Z" fill="#171717"/>
</svg>
